<?xml version="1.0" encoding="UTF-8" standalone="no"?>
<!-- Created with Inkscape (http://www.inkscape.org/) -->
<svg
   xmlns:dc="http://purl.org/dc/elements/1.1/"
   xmlns:cc="http://creativecommons.org/ns#"
   xmlns:rdf="http://www.w3.org/1999/02/22-rdf-syntax-ns#"
   xmlns:svg="http://www.w3.org/2000/svg"
   xmlns="http://www.w3.org/2000/svg"
   xmlns:xlink="http://www.w3.org/1999/xlink"
   xmlns:sodipodi="http://sodipodi.sourceforge.net/DTD/sodipodi-0.dtd"
   xmlns:inkscape="http://www.inkscape.org/namespaces/inkscape"
   width="15"
   height="15"
   id="svg2"
   sodipodi:version="0.32"
   inkscape:version="0.46"
   version="1.0"
   sodipodi:docname="RotationStepEnd.svg"
   inkscape:output_extension="org.inkscape.output.svg.inkscape">
  <defs
     id="defs4">
    <linearGradient
       id="linearGradient3185">
      <stop
         style="stop-color:#ff0000;stop-opacity:1;"
         offset="0"
         id="stop3187" />
      <stop
         style="stop-color:#a50000;stop-opacity:1;"
         offset="1"
         id="stop3189" />
    </linearGradient>
    <inkscape:perspective
       sodipodi:type="inkscape:persp3d"
       inkscape:vp_x="0 : 526.18109 : 1"
       inkscape:vp_y="0 : 1000 : 0"
       inkscape:vp_z="744.09448 : 526.18109 : 1"
       inkscape:persp3d-origin="372.04724 : 350.78739 : 1"
       id="perspective10" />
    <filter
       id="filter3203"
       inkscape:label="filtr1" />
    <radialGradient
       inkscape:collect="always"
       xlink:href="#linearGradient3185"
       id="radialGradient3193"
       cx="7.515625"
       cy="7.859375"
       fx="7.515625"
       fy="7.859375"
       r="6.953125"
       gradientUnits="userSpaceOnUse"
       spreadMethod="pad"
       gradientTransform="matrix(1.1655215,0,0,1.1655215,-1.2439969,-1.3008948)" />
  </defs>
  <sodipodi:namedview
     id="base"
     pagecolor="#ffffff"
     bordercolor="#666666"
     borderopacity="1.0"
     gridtolerance="10000"
     guidetolerance="10"
     objecttolerance="10"
     inkscape:pageopacity="0.0"
     inkscape:pageshadow="2"
     inkscape:zoom="50.466667"
     inkscape:cx="6.2120211"
     inkscape:cy="9.6187644"
     inkscape:document-units="pt"
     inkscape:current-layer="layer4"
     showgrid="false"
     units="pt"
     inkscape:window-width="1386"
     inkscape:window-height="962"
     inkscape:window-x="65"
     inkscape:window-y="57"
     showborder="true" />
  <metadata
     id="metadata7">
    <rdf:RDF>
      <cc:Work
         rdf:about="">
        <dc:format>image/svg+xml</dc:format>
        <dc:type
           rdf:resource="http://purl.org/dc/dcmitype/StillImage" />
      </cc:Work>
    </rdf:RDF>
  </metadata>
  <g
     inkscape:label="Layer 1"
     inkscape:groupmode="layer"
     id="layer1"
     style="display:none">
    <path
       style="fill:#2b1acc;fill-opacity:1;stroke:none;stroke-width:2.93182468;stroke-linejoin:miter;stroke-miterlimit:4;stroke-opacity:1"
       clip-path="none"
       d="M 4.65625,1.4375 C 2.2418059,2.5441475 0.53125,5.0229817 0.53125,7.84375 C 0.53124999,11.683268 3.6689722,14.8125 7.5,14.8125 C 11.331028,14.8125 14.46875,11.683268 14.46875,7.84375 C 14.46875,6.299119 13.949015,4.8508645 13.09375,3.6875 L 11.1875,5.25 C 11.702656,5.983264 12,6.8759879 12,7.84375 C 12,10.346741 9.9819816,12.34375 7.5,12.34375 C 5.018019,12.34375 3.03125,10.346741 3.03125,7.84375 C 3.0312499,6.4401114 3.6692234,5.1726542 4.65625,4.34375 L 4.65625,1.4375 z"
       id="path3218" />
    <path
       sodipodi:type="star"
       style="fill:#2b1acc;fill-opacity:1;stroke:#2b1acc;stroke-width:0.125;stroke-linejoin:miter;stroke-miterlimit:4;stroke-dasharray:none;stroke-opacity:1"
       id="path3264"
       sodipodi:sides="3"
       sodipodi:cx="4.6719556"
       sodipodi:cy="2.4993622"
       sodipodi:r1="3.7084486"
       sodipodi:r2="1.8542243"
       sodipodi:arg1="-2.6055527"
       sodipodi:arg2="-1.5583551"
       inkscape:flatsided="false"
       inkscape:rounded="0"
       inkscape:randomized="0"
       d="M 1.4836615,0.60532622 L 4.6950238,0.64528141 L 7.9063859,0.6852366 L 6.2661026,3.4463803 L 4.6258193,6.2075239 L 3.0547404,3.406425 L 1.4836615,0.60532622 z"
       transform="matrix(1.453629,0,0,1.4073737,-0.8355408,-0.6616412)" />
  </g>
  <g
     inkscape:groupmode="layer"
     id="layer2"
     inkscape:label="End symbol"
     style="display:none">
    <path
       sodipodi:type="arc"
       style="fill:none;fill-opacity:1;stroke:#ff0000;stroke-width:2.73033333;stroke-linejoin:miter;stroke-miterlimit:4;stroke-dasharray:none;stroke-opacity:1"
       id="path3157"
       sodipodi:cx="7.5919275"
       sodipodi:cy="7.9762831"
       sodipodi:rx="6.3608041"
       sodipodi:ry="6.3608041"
       d="M 13.952732,7.9762831 A 6.3608041,6.3608041 0 1 1 1.2311234,7.9762831 A 6.3608041,6.3608041 0 1 1 13.952732,7.9762831 z"
       transform="matrix(0.9019902,0,0,0.9019902,0.6651652,0.6712684)" />
    <path
       style="fill:none;fill-rule:evenodd;stroke:#ff0000;stroke-width:2.4625001;stroke-linecap:butt;stroke-linejoin:miter;stroke-miterlimit:4;stroke-dasharray:none;stroke-opacity:1"
       d="M 3.5039666,3.8251875 L 11.664105,11.985326"
       id="path3159"
       sodipodi:nodetypes="cc" />
  </g>
  <g
     inkscape:groupmode="layer"
     id="layer3"
     inkscape:label="End Arrow"
     style="display:none">
    <path
       sodipodi:type="arc"
       style="fill:none;fill-opacity:1;stroke:#ff0000;stroke-width:2.73033333;stroke-linejoin:miter;stroke-miterlimit:4;stroke-dasharray:none;stroke-opacity:1;display:inline"
       sodipodi:cx="7.5919275"
       sodipodi:cy="7.9762831"
       sodipodi:rx="6.3608041"
       sodipodi:ry="6.3608041"
       d="M 13.952732,7.9762831 A 6.3608041,6.3608041 0 1 1 1.2311234,7.9762831 A 6.3608041,6.3608041 0 1 1 13.952732,7.9762831 z"
       transform="matrix(0.9019902,0,0,0.9019902,0.6651652,0.6712684)"
       id="path15" />
    <path
       style="fill:#ff0000;fill-opacity:1;fill-rule:evenodd;stroke:none;stroke-width:2.4625001;stroke-linecap:butt;stroke-linejoin:miter;stroke-miterlimit:4;stroke-dasharray:none;stroke-opacity:1;display:inline"
       d="M 8.0625,6.65625 L 6.75,8.8125 L 10.78125,12.84375 L 12.53125,11.125 L 8.0625,6.65625 z"
       id="path3208" />
    <path
       transform="matrix(1.453629,0,0,1.4073737,-0.8355408,-0.6616412)"
       style="fill:#ff0000;fill-opacity:1;stroke:#ff0000;stroke-width:0.125;stroke-linejoin:miter;stroke-miterlimit:4;stroke-opacity:1;display:inline"
       d="M 1.4836615,0.60532622 L 4.6950238,0.64528141 L 7.9063859,0.6852366 L 6.2661026,3.4463803 L 4.6258193,6.2075239 L 3.0547404,3.406425 L 1.4836615,0.60532622 z"
       id="path3210" />
  </g>
  <g
     inkscape:groupmode="layer"
     id="layer4"
     inkscape:label="End (Gradient)"
     style="display:inline">
    <path
       style="fill:url(#radialGradient3193);fill-opacity:1;stroke:none;stroke-width:2.73033333000000011;stroke-linejoin:miter;stroke-miterlimit:4;stroke-dasharray:none;stroke-opacity:1;display:inline"
       d="M 7.5,0.90625 C 3.6667178,0.90625 0.5625,4.0104677 0.5625,7.84375 C 0.56249998,11.677032 3.666718,14.812499 7.5,14.8125 C 11.333283,14.8125 14.468749,11.677032 14.46875,7.84375 C 14.46875,4.0104679 11.333283,0.90625 7.5,0.90625 z M 7.5,3.34375 C 10.000789,3.3437501 12.03125,5.3429614 12.03125,7.84375 C 12.03125,8.638044 11.794248,9.3847714 11.4375,10.03125 L 5.34375,3.9375 C 5.9916931,3.578582 6.7031166,3.34375 7.5,3.34375 z M 3.59375,5.65625 L 9.71875,11.78125 C 9.0653572,12.148362 8.3066015,12.375 7.5,12.375 C 4.9992113,12.375 3,10.344538 3,7.84375 C 3,7.0371486 3.226638,6.3096428 3.59375,5.65625 z"
       id="path2394" />
  </g>
</svg>
